<mxfile host="app.diagrams.net" agent="Mozilla/5.0 (Windows NT 10.0; Win64; x64) AppleWebKit/537.36 (KHTML, like Gecko) Chrome/127.0.0.0 Safari/537.36" version="24.7.7">
  <diagram id="C5RBs43oDa-KdzZeNtuy" name="Page-1">
    <mxGraphModel dx="1628" dy="891" grid="1" gridSize="10" guides="1" tooltips="1" connect="1" arrows="1" fold="1" page="1" pageScale="1" pageWidth="827" pageHeight="1169" math="0" shadow="0">
      <root>
        <mxCell id="WIyWlLk6GJQsqaUBKTNV-0" />
        <mxCell id="WIyWlLk6GJQsqaUBKTNV-1" parent="WIyWlLk6GJQsqaUBKTNV-0" />
        <mxCell id="k-YtzOwAiz2bIl-IPeXj-3" value="" style="edgeStyle=none;curved=1;rounded=0;orthogonalLoop=1;jettySize=auto;html=1;fontSize=12;startSize=8;endSize=8;exitX=0.5;exitY=1;exitDx=0;exitDy=0;entryX=0.5;entryY=0;entryDx=0;entryDy=0;" edge="1" parent="WIyWlLk6GJQsqaUBKTNV-1" source="k-YtzOwAiz2bIl-IPeXj-1" target="k-YtzOwAiz2bIl-IPeXj-9">
          <mxGeometry relative="1" as="geometry">
            <mxPoint x="290" y="140" as="targetPoint" />
          </mxGeometry>
        </mxCell>
        <mxCell id="k-YtzOwAiz2bIl-IPeXj-5" value="" style="edgeStyle=none;curved=1;rounded=0;orthogonalLoop=1;jettySize=auto;html=1;fontSize=12;startSize=8;endSize=8;" edge="1" parent="WIyWlLk6GJQsqaUBKTNV-1" source="pKakvyhQhOXyc7hz-kBi-1" target="k-YtzOwAiz2bIl-IPeXj-4">
          <mxGeometry relative="1" as="geometry" />
        </mxCell>
        <mxCell id="k-YtzOwAiz2bIl-IPeXj-6" value="True" style="edgeLabel;html=1;align=center;verticalAlign=middle;resizable=0;points=[];fontSize=12;" vertex="1" connectable="0" parent="k-YtzOwAiz2bIl-IPeXj-5">
          <mxGeometry x="-0.3977" y="-1" relative="1" as="geometry">
            <mxPoint x="21" y="5" as="offset" />
          </mxGeometry>
        </mxCell>
        <mxCell id="k-YtzOwAiz2bIl-IPeXj-14" value="" style="edgeStyle=none;curved=1;rounded=0;orthogonalLoop=1;jettySize=auto;html=1;fontSize=12;startSize=8;endSize=8;exitX=0.5;exitY=1;exitDx=0;exitDy=0;entryX=0.5;entryY=0;entryDx=0;entryDy=0;" edge="1" parent="WIyWlLk6GJQsqaUBKTNV-1" source="k-YtzOwAiz2bIl-IPeXj-11" target="pKakvyhQhOXyc7hz-kBi-1">
          <mxGeometry relative="1" as="geometry">
            <mxPoint x="320" y="330" as="targetPoint" />
            <Array as="points">
              <mxPoint x="290" y="320" />
            </Array>
          </mxGeometry>
        </mxCell>
        <mxCell id="pKakvyhQhOXyc7hz-kBi-1" value="for i in range (0,len(products))" style="rhombus;whiteSpace=wrap;html=1;" vertex="1" parent="WIyWlLk6GJQsqaUBKTNV-1">
          <mxGeometry x="160" y="340" width="260" height="80" as="geometry" />
        </mxCell>
        <mxCell id="k-YtzOwAiz2bIl-IPeXj-1" value="start" style="ellipse;whiteSpace=wrap;html=1;" vertex="1" parent="WIyWlLk6GJQsqaUBKTNV-1">
          <mxGeometry x="250" y="40" width="80" height="60" as="geometry" />
        </mxCell>
        <mxCell id="k-YtzOwAiz2bIl-IPeXj-16" value="" style="edgeStyle=none;curved=1;rounded=0;orthogonalLoop=1;jettySize=auto;html=1;fontSize=12;startSize=8;endSize=8;" edge="1" parent="WIyWlLk6GJQsqaUBKTNV-1" source="k-YtzOwAiz2bIl-IPeXj-4" target="k-YtzOwAiz2bIl-IPeXj-15">
          <mxGeometry relative="1" as="geometry" />
        </mxCell>
        <mxCell id="k-YtzOwAiz2bIl-IPeXj-17" value="True" style="edgeLabel;html=1;align=center;verticalAlign=middle;resizable=0;points=[];fontSize=12;" vertex="1" connectable="0" parent="k-YtzOwAiz2bIl-IPeXj-16">
          <mxGeometry x="-0.2317" y="-1" relative="1" as="geometry">
            <mxPoint x="21" as="offset" />
          </mxGeometry>
        </mxCell>
        <mxCell id="k-YtzOwAiz2bIl-IPeXj-4" value="if (products[i][&quot;product_price&quot;] &amp;gt; 20&amp;nbsp;&lt;div&gt;and products[i][&quot;shop_rating&quot;] &amp;gt;= 4.5)&lt;/div&gt;" style="rhombus;whiteSpace=wrap;html=1;" vertex="1" parent="WIyWlLk6GJQsqaUBKTNV-1">
          <mxGeometry x="160" y="450" width="260" height="120" as="geometry" />
        </mxCell>
        <mxCell id="k-YtzOwAiz2bIl-IPeXj-12" value="" style="edgeStyle=none;curved=1;rounded=0;orthogonalLoop=1;jettySize=auto;html=1;fontSize=12;startSize=8;endSize=8;" edge="1" parent="WIyWlLk6GJQsqaUBKTNV-1" source="k-YtzOwAiz2bIl-IPeXj-9" target="k-YtzOwAiz2bIl-IPeXj-11">
          <mxGeometry relative="1" as="geometry" />
        </mxCell>
        <mxCell id="k-YtzOwAiz2bIl-IPeXj-9" value="Input list of dict name products" style="shape=parallelogram;perimeter=parallelogramPerimeter;whiteSpace=wrap;html=1;fixedSize=1;size=10;" vertex="1" parent="WIyWlLk6GJQsqaUBKTNV-1">
          <mxGeometry x="200" y="140" width="180" height="60" as="geometry" />
        </mxCell>
        <mxCell id="k-YtzOwAiz2bIl-IPeXj-11" value="create list named criteria" style="whiteSpace=wrap;html=1;" vertex="1" parent="WIyWlLk6GJQsqaUBKTNV-1">
          <mxGeometry x="230" y="250" width="120" height="60" as="geometry" />
        </mxCell>
        <mxCell id="k-YtzOwAiz2bIl-IPeXj-19" value="" style="edgeStyle=none;curved=1;rounded=0;orthogonalLoop=1;jettySize=auto;html=1;fontSize=12;startSize=8;endSize=8;" edge="1" parent="WIyWlLk6GJQsqaUBKTNV-1" source="k-YtzOwAiz2bIl-IPeXj-15" target="k-YtzOwAiz2bIl-IPeXj-18">
          <mxGeometry relative="1" as="geometry" />
        </mxCell>
        <mxCell id="k-YtzOwAiz2bIl-IPeXj-21" value="" style="edgeStyle=none;curved=0;rounded=0;orthogonalLoop=1;jettySize=auto;html=1;fontSize=12;startSize=8;endSize=8;entryX=1;entryY=0.5;entryDx=0;entryDy=0;exitX=1;exitY=0.5;exitDx=0;exitDy=0;" edge="1" parent="WIyWlLk6GJQsqaUBKTNV-1" source="k-YtzOwAiz2bIl-IPeXj-4" target="k-YtzOwAiz2bIl-IPeXj-18">
          <mxGeometry relative="1" as="geometry">
            <mxPoint x="410" y="770" as="targetPoint" />
            <Array as="points">
              <mxPoint x="470" y="510" />
              <mxPoint x="470" y="650" />
              <mxPoint x="470" y="765" />
            </Array>
          </mxGeometry>
        </mxCell>
        <mxCell id="k-YtzOwAiz2bIl-IPeXj-23" value="False" style="edgeLabel;html=1;align=center;verticalAlign=middle;resizable=0;points=[];fontSize=12;" vertex="1" connectable="0" parent="k-YtzOwAiz2bIl-IPeXj-21">
          <mxGeometry x="-0.8591" y="-1" relative="1" as="geometry">
            <mxPoint x="-13" y="-11" as="offset" />
          </mxGeometry>
        </mxCell>
        <mxCell id="k-YtzOwAiz2bIl-IPeXj-15" value="add&amp;nbsp;(f&quot;{products[i][&quot;product_name&quot;].upper()}: ${products[i][&quot;product_price&quot;]}&quot;) to criteria" style="rounded=0;whiteSpace=wrap;html=1;" vertex="1" parent="WIyWlLk6GJQsqaUBKTNV-1">
          <mxGeometry x="160" y="605" width="260" height="90" as="geometry" />
        </mxCell>
        <mxCell id="k-YtzOwAiz2bIl-IPeXj-25" value="" style="edgeStyle=none;curved=0;rounded=0;orthogonalLoop=1;jettySize=auto;html=1;fontSize=12;startSize=8;endSize=8;entryX=0;entryY=0.5;entryDx=0;entryDy=0;" edge="1" parent="WIyWlLk6GJQsqaUBKTNV-1" source="k-YtzOwAiz2bIl-IPeXj-18" target="pKakvyhQhOXyc7hz-kBi-1">
          <mxGeometry relative="1" as="geometry">
            <Array as="points">
              <mxPoint x="100" y="765" />
              <mxPoint x="100" y="380" />
            </Array>
          </mxGeometry>
        </mxCell>
        <mxCell id="k-YtzOwAiz2bIl-IPeXj-18" value="" style="ellipse;whiteSpace=wrap;html=1;aspect=fixed;" vertex="1" parent="WIyWlLk6GJQsqaUBKTNV-1">
          <mxGeometry x="275" y="750" width="30" height="30" as="geometry" />
        </mxCell>
        <mxCell id="k-YtzOwAiz2bIl-IPeXj-30" value="False" style="text;html=1;align=center;verticalAlign=middle;resizable=0;points=[];autosize=1;strokeColor=none;fillColor=none;fontSize=16;" vertex="1" parent="WIyWlLk6GJQsqaUBKTNV-1">
          <mxGeometry x="420" y="350" width="60" height="30" as="geometry" />
        </mxCell>
        <mxCell id="k-YtzOwAiz2bIl-IPeXj-32" value="" style="edgeStyle=none;curved=1;rounded=0;orthogonalLoop=1;jettySize=auto;html=1;fontSize=12;startSize=8;endSize=8;" edge="1" parent="WIyWlLk6GJQsqaUBKTNV-1" source="pKakvyhQhOXyc7hz-kBi-1" target="k-YtzOwAiz2bIl-IPeXj-29">
          <mxGeometry relative="1" as="geometry">
            <mxPoint x="420" y="380" as="sourcePoint" />
            <mxPoint x="610" y="379.9999999999999" as="targetPoint" />
          </mxGeometry>
        </mxCell>
        <mxCell id="k-YtzOwAiz2bIl-IPeXj-35" value="" style="edgeStyle=none;curved=1;rounded=0;orthogonalLoop=1;jettySize=auto;html=1;fontSize=12;startSize=8;endSize=8;entryX=0.5;entryY=0;entryDx=0;entryDy=0;" edge="1" parent="WIyWlLk6GJQsqaUBKTNV-1" source="k-YtzOwAiz2bIl-IPeXj-29" target="k-YtzOwAiz2bIl-IPeXj-33">
          <mxGeometry relative="1" as="geometry">
            <mxPoint x="550" y="500" as="targetPoint" />
          </mxGeometry>
        </mxCell>
        <mxCell id="k-YtzOwAiz2bIl-IPeXj-29" value="criteria" style="shape=display;whiteSpace=wrap;html=1;" vertex="1" parent="WIyWlLk6GJQsqaUBKTNV-1">
          <mxGeometry x="490" y="350" width="120" height="60" as="geometry" />
        </mxCell>
        <mxCell id="k-YtzOwAiz2bIl-IPeXj-33" value="stop" style="ellipse;whiteSpace=wrap;html=1;" vertex="1" parent="WIyWlLk6GJQsqaUBKTNV-1">
          <mxGeometry x="505" y="735" width="90" height="60" as="geometry" />
        </mxCell>
      </root>
    </mxGraphModel>
  </diagram>
</mxfile>
